<?xml version="1.0"?>
<svg width="1280" height="1221" xmlns="http://www.w3.org/2000/svg" xmlns:svg="http://www.w3.org/2000/svg" preserveAspectRatio="xMidYMid meet">
 <metadata>Created by potrace 1.15, written by Peter Selinger 2001-2017</metadata>
 <g class="layer">
  <title>Layer 1</title>
  <g fill="#000000" id="svg_1" transform="translate(0 1221) scale(0.1 -0.1)">
   <path d="m6307,12196c-98,-36 -178,-122 -275,-295c-116,-207 -394,-714 -756,-1380c-532,-976 -792,-1442 -1071,-1916l-47,-81l-971,-183c-535,-101 -1262,-239 -1617,-307c-355,-68 -742,-139 -861,-158c-343,-55 -495,-100 -595,-174c-98,-74 -140,-224 -95,-343c39,-103 -5,-54 871,-984c734,-780 1440,-1525 1641,-1732c109,-111 215,-230 238,-264c40,-59 41,-64 41,-144c0,-48 -13,-160 -30,-260c-17,-97 -60,-402 -96,-678c-119,-924 -192,-1499 -239,-1877c-25,-206 -60,-478 -77,-605c-48,-355 -44,-563 13,-676c26,-53 90,-106 150,-123c117,-35 194,-16 444,108c105,52 393,189 640,304c248,115 801,375 1230,577c429,202 850,401 935,441c85,40 230,111 322,158c184,94 261,121 319,113c50,-7 126,-42 284,-132c140,-80 280,-147 1405,-667c1022,-473 1584,-736 1725,-806c166,-83 233,-105 325,-106c180,0 277,104 299,321c13,129 -2,296 -59,633c-10,63 -51,371 -90,685c-38,314 -104,842 -145,1175c-73,593 -180,1409 -191,1462c-5,24 20,54 232,285c295,320 512,552 1104,1183c256,272 595,635 754,805c159,171 357,381 438,468c182,194 223,245 259,322c82,174 21,314 -174,405c-108,50 -198,72 -473,119c-126,22 -391,71 -589,110c-198,38 -616,117 -930,176c-1644,306 -1961,367 -1972,378c-16,16 -226,393 -1001,1797c-365,663 -684,1239 -707,1280c-23,41 -81,152 -129,246c-110,215 -153,271 -240,314c-78,39 -177,49 -239,26z" fill="#ffd700" id="svg_2"/>
  </g>
 </g>
</svg>